# xmcd CD database file
#
# Track frame offsets:
#	150
#	18882
#	44365
#	65272
#	87697
#	108595
#	123787
#	143202
#
# Disc length: 2468 seconds
#
# Revision: 1
# Processed by: cddbd v1.5.2PL0 Copyright (c) Steve Scherf et al.
# Submitted via: CDex 1.51
#
DISCID=6809a208
DTITLE=Albert Collins - Frostbite
DYEAR=1980
DGENRE=Blues
TTITLE0=If You Love Me Like You Say
TTITLE1=Blue Monday Hangover
TTITLE2=I Got A Problem
TTITLE3=The Highway Is Like A Woman
TTITLE4=Brick
TTITLE5=Don't Go Reaching Across My Plate
TTITLE6=Give Me My Blues
TTITLE7=Snowed In
EXTD=YEAR: 1980
EXTT0=
EXTT1=
EXTT2=
EXTT3=
EXTT4=
EXTT5=
EXTT6=
EXTT7=
PLAYORDER=
